<?xml version="1.0" encoding="UTF-8"?>
<svg version="1.1" xmlns="http://www.w3.org/2000/svg" width="321" height="321">
<path d="M0 0 C6.79304488 4.32991792 12.91073869 9.71352184 19.125 14.8203125 C22.58936176 17.65893818 26.10810023 20.40446342 29.671875 23.1171875 C34.58241858 26.86086924 39.39207819 30.70819699 44.171875 34.6171875 C48.97364254 38.54331513 53.80178457 42.41901646 58.734375 46.1796875 C64.05695026 50.24061529 69.29662901 54.39354579 74.51586914 58.58618164 C78.71395421 61.95661189 82.93311968 65.29807732 87.171875 68.6171875 C93.9823644 73.95276308 100.73859226 79.35455925 107.48681641 84.76855469 C109.00728196 85.98545584 110.5326466 87.19622966 112.05859375 88.40625 C113.69872072 89.70730019 115.33333364 91.01534839 116.9609375 92.33203125 C118.41974429 93.50990175 119.89364293 94.66935272 121.3828125 95.80859375 C127.71259525 100.87947918 131.16804011 106.27834265 132.82421875 114.26171875 C133.26852442 119.39253623 133.07885755 122.76025658 130.171875 127.109375 C127.61667414 129.921654 124.94863922 132.52499402 122.171875 135.1171875 C121.02635533 136.36955608 119.89894841 137.63892162 118.796875 138.9296875 C118.24257813 139.56519531 117.68828125 140.20070312 117.1171875 140.85546875 C115.60296285 142.61598295 114.09999237 144.38617924 112.6015625 146.16015625 C106.4350831 153.44781372 100.09027912 160.51623655 93.51171875 167.43554688 C89.85992541 171.2818379 86.320701 175.20135333 82.84399414 179.20654297 C80.38242875 182.01924712 77.84366282 184.75681223 75.296875 187.4921875 C70.9547906 192.17589078 66.65300514 196.89186836 62.390625 201.6484375 C59.95539277 204.35806209 57.50192224 207.05050921 55.046875 209.7421875 C51.63701026 213.48831008 48.27208528 217.26659262 44.94921875 221.08984375 C42.11754553 224.31981826 39.22984993 227.49909406 36.3515625 230.6875 C34.48042406 232.7732493 32.63262669 234.87536378 30.796875 236.9921875 C27.34577061 240.95694464 23.78795416 244.82140416 20.22583008 248.68603516 C17.59863993 251.54177501 15.0148592 254.425572 12.484375 257.3671875 C1.63884867 269.83300933 1.63884867 269.83300933 -5.640625 270.4296875 C-9.89508493 270.67595364 -12.64344535 268.70363503 -15.828125 266.1171875 C-18.73418503 263.4573117 -21.50365169 260.67556001 -24.265625 257.8671875 C-24.99072266 257.14144531 -25.71582031 256.41570312 -26.46289062 255.66796875 C-30.55595877 251.54180302 -34.48231359 247.3217495 -38.25610352 242.90136719 C-39.87809201 241.060477 -41.5765298 239.3345286 -43.328125 237.6171875 C-46.42169143 234.57886333 -49.24918007 231.3695343 -52.078125 228.0859375 C-54.30243984 225.5835833 -56.67464666 223.25889146 -59.0625 220.9140625 C-61.58060547 218.35138879 -63.91435205 215.64262319 -66.25 212.9140625 C-67.78611647 211.10824873 -67.78611647 211.10824873 -69.46875 209.5703125 C-72.40198197 206.43478867 -72.1646121 202.44647133 -72.10546875 198.3984375 C-71.50670564 193.47340011 -68.65627068 190.81651052 -65.015625 187.7421875 C-61.20797865 185.80103446 -59.05387774 185.58896841 -54.828125 186.1171875 C-48.29846506 188.46626509 -44.11876602 193.53750856 -39.4140625 198.4140625 C-37.58358111 200.27758716 -35.75284435 202.14086102 -33.921875 204.00390625 C-31.04763036 206.94348439 -28.18051241 209.88993038 -25.31738281 212.84033203 C-22.55009094 215.69023013 -19.76316341 218.52054067 -16.9765625 221.3515625 C-16.11920502 222.24413757 -15.26184753 223.13671265 -14.37850952 224.05633545 C-13.57732697 224.86757874 -12.77614441 225.67882202 -11.95068359 226.51464844 C-11.24930267 227.23618103 -10.54792175 227.95771362 -9.82528687 228.70111084 C-7.94411707 230.35327218 -7.94411707 230.35327218 -5.6937561 229.96099854 C-3.01870661 228.7510936 -1.65384423 226.97981552 0.234375 224.7421875 C4.60366734 219.6967817 9.2165466 215.02906416 13.984375 210.3671875 C16.1977608 208.31777923 16.1977608 208.31777923 17.171875 206.1171875 C17.831875 206.1171875 18.491875 206.1171875 19.171875 206.1171875 C19.38457031 205.57578125 19.59726563 205.034375 19.81640625 204.4765625 C21.66206933 201.26393859 24.21152111 198.91169475 26.859375 196.3671875 C30.27526604 193.02407177 33.63840753 189.7018882 36.734375 186.0546875 C39.99230905 182.2232296 43.544035 178.71634558 47.12084961 175.18774414 C50.39224566 171.94337976 53.44158538 168.58092414 56.4296875 165.078125 C59.06959338 162.10675112 61.91381523 159.35261862 64.765625 156.5859375 C66.74180723 154.55842587 68.60339835 152.50035228 70.45703125 150.36328125 C74.2244482 146.02139643 78.15208235 141.84805474 82.109375 137.6796875 C83.5135063 136.18665433 84.91715727 134.69316927 86.3203125 133.19921875 C88.53554094 130.84358851 90.76255071 128.50318385 93.0234375 126.19140625 C93.75304687 125.42441406 94.48265625 124.65742188 95.234375 123.8671875 C95.84410156 123.24328125 96.45382812 122.619375 97.08203125 121.9765625 C98.37406278 120.12360664 98.37406278 120.12360664 98.203125 117.6640625 C96.76286956 114.107068 94.71881577 112.84530211 91.609375 110.6171875 C90.41750765 109.74328505 89.22748629 108.86686088 88.0390625 107.98828125 C87.40838867 107.52534668 86.77771484 107.06241211 86.12792969 106.58544922 C82.74960476 104.04959724 79.49800502 101.36046992 76.234375 98.6796875 C70.66947492 94.13063415 65.06167371 89.64518982 59.3996582 85.21777344 C51.71158768 79.20206881 44.1079157 73.08043186 36.49609375 66.96875 C32.4500513 63.72396964 28.38893881 60.50052608 24.30419922 57.3046875 C17.60933478 52.06636067 10.98705651 46.74675893 4.41357422 41.35668945 C3.77307129 40.83292725 3.13256836 40.30916504 2.47265625 39.76953125 C1.90716064 39.30538818 1.34166504 38.84124512 0.7590332 38.36303711 C-2.1040686 35.88459246 -2.1040686 35.88459246 -5.65234375 35.22265625 C-8.73526328 36.49014022 -11.0241062 38.36609343 -13.640625 40.4296875 C-14.2068457 40.8733667 -14.77306641 41.3170459 -15.35644531 41.77416992 C-20.25546869 45.62502704 -25.10633053 49.53760495 -29.96044922 53.44482422 C-34.67156101 57.22546445 -39.45344641 60.90389916 -44.265625 64.5546875 C-49.87159179 68.80996428 -55.38662867 73.15357548 -60.828125 77.6171875 C-66.96192505 82.64869023 -73.2083727 87.50560981 -79.52758789 92.30151367 C-85.57542272 96.89987318 -91.52157807 101.61450293 -97.4296875 106.390625 C-99.56929456 108.11844499 -101.72557366 109.8010661 -103.9140625 111.46875 C-104.81382813 112.15710938 -105.71359375 112.84546875 -106.640625 113.5546875 C-107.41019531 114.13089844 -108.17976563 114.70710938 -108.97265625 115.30078125 C-111.87893467 118.14587486 -112.73250956 121.00102044 -113.07701397 125.0225935 C-113.0764692 126.09941545 -113.07592443 127.17623739 -113.07536316 128.28569031 C-113.07955765 129.52655396 -113.08375214 130.7674176 -113.08807373 132.04588318 C-113.08259095 133.41299517 -113.07690799 134.78010638 -113.07104492 136.1472168 C-113.07211834 137.59296759 -113.0740579 139.03871796 -113.07679749 140.48446655 C-113.08163819 144.4036439 -113.07400075 148.3227071 -113.06384444 152.24187064 C-113.05505515 156.34222008 -113.05682153 160.44256604 -113.0572052 164.54292297 C-113.05626921 171.42520049 -113.04759242 178.30743386 -113.03393555 185.18969727 C-113.01819201 193.15308703 -113.01293812 201.11642853 -113.0136711 209.07983273 C-113.01428076 216.73701886 -113.00918218 224.39418923 -113.00087929 232.05137062 C-112.99734374 235.31249934 -112.99551566 238.57362249 -112.99498558 241.83475304 C-112.99398333 245.67032904 -112.98789639 249.50586429 -112.97781944 253.34142685 C-112.97489147 254.75157611 -112.97366967 256.16173006 -112.97424698 257.57188225 C-112.97473551 259.49113777 -112.9684797 261.41039153 -112.96183777 263.32963562 C-112.96016192 264.40532649 -112.95848608 265.48101736 -112.95675945 266.58930492 C-112.99784635 269.11206186 -112.99784635 269.11206186 -111.828125 271.1171875 C-41.208125 271.1171875 29.411875 271.1171875 102.171875 271.1171875 C103.37497771 267.50787936 103.30076289 264.22356963 103.28198242 260.46801758 C103.28252513 258.85626728 103.28311213 257.24451699 103.28373718 255.63276672 C103.28230902 254.7783581 103.28088085 253.92394947 103.27940941 253.04364967 C103.27588682 248.51276353 103.30169899 243.98200109 103.32226562 239.45117188 C103.34657641 233.68828984 103.36232684 227.92576789 103.34692383 222.1628418 C103.33523587 217.50359448 103.35273103 212.84524039 103.38936806 208.18613243 C103.39796199 206.41484178 103.395936 204.64346518 103.382864 202.87220192 C103.26822561 186.07880357 103.26822561 186.07880357 108.61509705 180.49946594 C109.12883377 180.04331406 109.6425705 179.58716217 110.171875 179.1171875 C110.86563232 178.37879639 111.55938965 177.64040527 112.27416992 176.87963867 C112.89396729 176.31220947 113.51376465 175.74478027 114.15234375 175.16015625 C114.84134766 174.52271484 115.53035156 173.88527344 116.24023438 173.22851562 C116.93955078 172.59365234 117.63886719 171.95878906 118.359375 171.3046875 C119.76979362 170.00679548 121.1799597 168.70862895 122.58984375 167.41015625 C123.20625732 166.8483667 123.8226709 166.28657715 124.45776367 165.70776367 C126.20358458 164.15559473 126.20358458 164.15559473 127.64575195 162.34887695 C128.14937256 161.94241943 128.65299316 161.53596191 129.171875 161.1171875 C131.26725769 161.54020691 131.26725769 161.54020691 133.171875 162.1171875 C133.24204613 178.27697588 133.29490278 194.43671461 133.32731152 210.59661865 C133.34276137 218.10043439 133.36381472 225.6041553 133.39819336 233.10791016 C133.42815355 239.65039415 133.44746368 246.19280945 133.45414048 252.73536015 C133.45804158 256.19761221 133.46717002 259.65966778 133.48906517 263.12185669 C133.51334491 266.99273278 133.51384075 270.86341898 133.51245117 274.734375 C133.52862991 276.44449516 133.52862991 276.44449516 133.5451355 278.18916321 C133.51785231 285.22013055 133.15316288 291.5464177 128.453125 297.17578125 C127.8653125 297.63082031 127.2775 298.08585937 126.671875 298.5546875 C126.0840625 299.02777344 125.49625 299.50085938 124.890625 299.98828125 C121.92363457 301.93705451 119.35360422 302.24358477 115.90511799 302.25420189 C114.59206022 302.2618137 114.59206022 302.2618137 113.25247604 302.26957929 C112.2900435 302.27007705 111.32761096 302.27057481 110.33601379 302.27108765 C109.3141234 302.2754699 108.29223301 302.27985215 107.23937625 302.2843672 C103.79866111 302.29777319 100.3579716 302.30393812 96.91723633 302.31005859 C94.45689782 302.31795812 91.99656048 302.32622697 89.53622437 302.33483887 C82.1410108 302.3588101 74.74580146 302.37398902 67.35056236 302.38689893 C65.26158108 302.39061136 63.17260046 302.39458455 61.08361983 302.3986516 C48.10940986 302.42388861 35.13519883 302.44594021 22.16096973 302.45837975 C19.15605986 302.46130941 16.15115002 302.46427108 13.14624023 302.46728516 C12.39939091 302.46803121 11.65254159 302.46877726 10.88306048 302.46954592 C-1.21352046 302.48219762 -13.30995436 302.51541857 -25.40646657 302.55708699 C-37.82769746 302.59952296 -50.24885311 302.62307669 -62.6701563 302.62830031 C-69.6434725 302.63171255 -76.61655889 302.64344543 -83.5898037 302.67640305 C-90.15041005 302.70735972 -96.71068869 302.71281107 -103.27138138 302.70101929 C-105.67881195 302.70079818 -108.08626087 302.70913336 -110.49362755 302.72667313 C-113.78201698 302.74932697 -117.06894885 302.74108585 -120.35734558 302.72518921 C-121.30862451 302.7390713 -122.25990344 302.75295338 -123.24000901 302.76725614 C-129.60359552 302.6915305 -133.92990508 301.26408018 -138.828125 297.1171875 C-143.40977557 291.36075474 -143.951749 287.26291089 -143.96856689 280.04632568 C-143.97153802 279.33393085 -143.97450914 278.62153601 -143.9775703 277.88755345 C-143.98624243 275.50021904 -143.98776429 273.11293485 -143.98925781 270.72558594 C-143.99388706 269.01385898 -143.99891186 267.30213305 -144.00430298 265.59040833 C-144.01741919 260.93943031 -144.02387048 256.28846673 -144.02831364 251.63747311 C-144.03124577 248.7307586 -144.03535086 245.82404803 -144.03981781 242.91733551 C-144.05349102 233.82013173 -144.0631584 224.72293695 -144.0670197 215.6257236 C-144.07149942 205.1295729 -144.08904407 194.63355249 -144.1180203 184.1374414 C-144.13964821 176.02095198 -144.14972458 167.90449919 -144.15106082 159.78798127 C-144.1521081 154.94195436 -144.15799948 150.09604995 -144.17588043 145.25005341 C-144.19238016 140.68967992 -144.19450738 136.12952077 -144.18574142 131.56912804 C-144.18497205 129.89864464 -144.18930055 128.22814963 -144.19919968 126.55769539 C-144.30762285 107.11580338 -144.30762285 107.11580338 -136.8671875 99.015625 C-132.71772363 95.15233105 -128.12950526 91.8318406 -123.59130859 88.4453125 C-120.7393385 86.29705477 -117.94125706 84.08169708 -115.140625 81.8671875 C-111.27380996 78.8175354 -107.39850844 75.77974585 -103.50390625 72.765625 C-96.11001282 67.04235182 -88.75417346 61.28628658 -81.515625 55.3671875 C-74.72068371 49.81086836 -67.81342371 44.4322778 -60.828125 39.1171875 C-53.31544985 33.38309882 -45.87026962 27.5786893 -38.50024414 21.66210938 C-31.98174857 16.43048014 -25.42216455 11.25324845 -18.828125 6.1171875 C-17.98765625 5.46234375 -17.1471875 4.8075 -16.28125 4.1328125 C-15.57484375 3.59140625 -14.8684375 3.05 -14.140625 2.4921875 C-13.26857422 1.82316406 -13.26857422 1.82316406 -12.37890625 1.140625 C-8.52378549 -1.40356049 -4.20829936 -2.03221294 0 0 Z " fill="#41507D" transform="translate(166.828125,5.8828125)"/>
<path d="M0 0 C8.91 0 17.82 0 27 0 C27.76528283 3.82641414 28.1189632 6.70558653 28.09765625 10.51953125 C28.09515869 11.44096924 28.09266113 12.36240723 28.09008789 13.31176758 C28.08098389 14.46700928 28.07187988 15.62225098 28.0625 16.8125 C28.041875 20.504375 28.02125 24.19625 28 28 C18.76 28 9.52 28 0 28 C0 18.76 0 9.52 0 0 Z " fill="#455682" transform="translate(130,106)"/>
<path d="M0 0 C1.084021 0.00523682 2.16804199 0.01047363 3.28491211 0.01586914 C5.03964844 0.02070313 5.03964844 0.02070313 6.82983398 0.02563477 C8.67738281 0.03820312 8.67738281 0.03820312 10.56225586 0.05102539 C12.41560547 0.05779297 12.41560547 0.05779297 14.30639648 0.06469727 C17.37089703 0.07652931 20.43530307 0.09301366 23.49975586 0.11352539 C24.48195526 3.38978914 24.615565 6.34140658 24.59741211 9.75415039 C24.59491455 10.71869141 24.59241699 11.68323242 24.58984375 12.67700195 C24.58073975 13.89355469 24.57163574 15.11010742 24.56225586 16.36352539 C24.54163086 20.24102539 24.52100586 24.11852539 24.49975586 28.11352539 C15.25975586 28.11352539 6.01975586 28.11352539 -3.50024414 28.11352539 C-3.52086914 23.67915039 -3.54149414 19.24477539 -3.56274414 14.67602539 C-3.57184814 13.27553955 -3.58095215 11.87505371 -3.59033203 10.43212891 C-3.59282959 9.33827881 -3.59532715 8.24442871 -3.59790039 7.11743164 C-3.60313721 5.99151611 -3.60837402 4.86560059 -3.61376953 3.70556641 C-3.46339207 0.27210935 -3.42530591 0.15552849 0 0 Z " fill="#435380" transform="translate(133.500244140625,140.886474609375)"/>
<path d="M0 0 C8.91 0 17.82 0 27 0 C27 9.24 27 18.48 27 28 C18.09 28 9.18 28 0 28 C0 18.76 0 9.52 0 0 Z " fill="#41517E" transform="translate(166,141)"/>
<path d="M0 0 C8.91 0 17.82 0 27 0 C27 9.24 27 18.48 27 28 C18.09 28 9.18 28 0 28 C0 18.76 0 9.52 0 0 Z " fill="#40517E" transform="translate(166,106)"/>
<path d="M0 0 C0.66 0.33 1.32 0.66 2 1 C-1.96 4.96 -5.92 8.92 -10 13 C-10.33 12.34 -10.66 11.68 -11 11 C-9.92173635 9.72486237 -8.83714481 8.45507431 -7.75 7.1875 C-7.14671875 6.47980469 -6.5434375 5.77210938 -5.921875 5.04296875 C-4.07629602 3.08110329 -2.20054668 1.54330375 0 0 Z " fill="#57698F" transform="translate(284,179)"/>
</svg>
